<svg width="356" height="41" viewBox="0 0 356 41" fill="none" xmlns="http://www.w3.org/2000/svg">
<path d="M18.3169 37.8422C27.9817 37.8422 35.8165 30.0074 35.8165 20.3427C35.8165 10.6779 27.9817 2.84312 18.3169 2.84312C8.65219 2.84312 0.817383 10.6779 0.817383 20.3427C0.817383 30.0074 8.65219 37.8422 18.3169 37.8422Z" fill="white"/>
<path fill-rule="evenodd" clip-rule="evenodd" d="M28.0668 26.3849C28.0668 27.2088 27.3802 27.8715 26.5443 27.8237C25.7622 27.782 25.177 27.0834 25.177 26.3013V22.5518C25.177 22.1279 24.8308 21.7816 24.4069 21.7816H20.526C20.1021 21.7816 19.7558 22.1279 19.7558 22.5518V27.2207C19.7558 28.0447 19.0692 28.7074 18.2334 28.6596C17.4512 28.6178 16.8661 27.9193 16.8661 27.1371V22.5458C16.8661 22.1219 16.5198 21.7756 16.0959 21.7756H12.2151C11.7912 21.7756 11.4449 22.1219 11.4449 22.5458V26.3729C11.4449 27.1968 10.7583 27.8596 9.92242 27.8118C9.14028 27.77 8.55518 27.0715 8.55518 26.2893V14.2886C8.55518 13.4647 9.24178 12.802 10.0777 12.8497C10.8598 12.8915 11.4449 13.5901 11.4449 14.3722V18.1217C11.4449 18.5456 11.7912 18.8919 12.2151 18.8919H16.0959C16.5198 18.8919 16.8661 18.5456 16.8661 18.1217V13.4527C16.8661 12.6288 17.5527 11.9661 18.3886 12.0139C19.1707 12.0557 19.7558 12.7542 19.7558 13.5363V18.1277C19.7558 18.5516 20.1021 18.8978 20.526 18.8978H24.4069C24.8308 18.8978 25.177 18.5516 25.177 18.1277V14.3782C25.177 13.596 25.7622 12.8975 26.5443 12.8557C27.3742 12.8139 28.0668 13.4766 28.0668 14.2946V26.3789V26.3849Z" fill="#44434E"/>
<path d="M140.091 8.58055H137.935C137.511 8.58055 137.165 8.92684 137.165 9.35075V22.7068C137.165 26.3846 138.747 27.9369 143.368 27.5847C143.774 27.5548 144.091 27.2205 144.091 26.8145V24.9696C144.091 24.5337 143.727 24.1934 143.297 24.2054C141.697 24.2471 140.861 24.0501 140.861 22.7127V16.3124H143.327C143.751 16.3124 144.097 15.9661 144.097 15.5422V13.5301C144.097 13.1062 143.751 12.7599 143.327 12.7599H140.861V9.35672C140.861 8.93281 140.514 8.58652 140.091 8.58652V8.58055Z" fill="white"/>
<path d="M127.541 12.6169C123.332 12.6169 119.988 15.9066 119.988 20.1696C119.988 24.4325 123.337 27.7222 127.541 27.7222C131.744 27.7222 135.123 24.4325 135.123 20.1696C135.123 15.9066 131.744 12.6169 127.541 12.6169ZM127.541 24.122C125.367 24.122 123.678 22.4921 123.678 20.1755C123.678 17.859 125.367 16.229 127.541 16.229C129.714 16.229 131.433 17.859 131.433 20.1755C131.433 22.4921 129.744 24.122 127.541 24.122Z" fill="white"/>
<path d="M152.903 12.6169C148.694 12.6169 145.351 15.9066 145.351 20.1696C145.351 24.4325 148.7 27.7222 152.903 27.7222C157.107 27.7222 160.486 24.4325 160.486 20.1696C160.486 15.9066 157.107 12.6169 152.903 12.6169ZM152.903 24.122C150.73 24.122 149.04 22.4921 149.04 20.1755C149.04 17.859 150.73 16.229 152.903 16.229C155.077 16.229 156.796 17.859 156.796 20.1755C156.796 22.4921 155.106 24.122 152.903 24.122Z" fill="white"/>
<path d="M58.4376 21.4652C58.4376 22.8623 57.2375 23.9788 55.8105 23.8415C54.5687 23.7221 53.6612 22.6056 53.6612 21.3578V13.5185C53.6612 13.0946 53.3149 12.7483 52.891 12.7483H50.6341C50.2102 12.7483 49.8639 13.0946 49.8639 13.5185V21.3578C49.8639 22.6056 48.9564 23.7161 47.7145 23.8415C46.2936 23.9788 45.0875 22.8623 45.0875 21.4652V13.5185C45.0875 13.0946 44.7412 12.7483 44.3173 12.7483H42.0605C41.6366 12.7483 41.2903 13.0946 41.2903 13.5185V21.2682C41.2903 24.5221 43.7262 27.3641 46.9682 27.6208C48.8251 27.7701 50.5266 27.0835 51.7506 25.9073C52.9746 27.0835 54.6702 27.7701 56.533 27.6208C59.775 27.3641 62.2109 24.5221 62.2109 21.2682V13.5185C62.2109 13.0946 61.8646 12.7483 61.4407 12.7483H59.1839C58.76 12.7483 58.4137 13.0946 58.4137 13.5185V21.4652H58.4376Z" fill="white"/>
<path d="M112.633 12.7542C110.776 12.6049 109.074 13.2915 107.85 14.4677C106.627 13.2915 104.931 12.6049 103.068 12.7542C99.8261 13.0109 97.3901 15.8529 97.3901 19.1068V26.8565C97.3901 27.2804 97.7364 27.6267 98.1603 27.6267H100.417C100.841 27.6267 101.187 27.2804 101.187 26.8565V19.0172C101.187 17.7694 102.095 16.6589 103.337 16.5335C104.758 16.3962 105.964 17.5127 105.964 18.9097V26.8565C105.964 27.2804 106.31 27.6267 106.734 27.6267H108.991C109.415 27.6267 109.761 27.2804 109.761 26.8565V19.0172C109.761 17.7694 110.669 16.6589 111.91 16.5335C113.331 16.3962 114.537 17.5127 114.537 18.9097V26.8565C114.537 27.2804 114.884 27.6267 115.308 27.6267H117.564C117.988 27.6267 118.335 27.2804 118.335 26.8565V19.1068C118.335 15.8529 115.899 13.0109 112.657 12.7542H112.633Z" fill="white"/>
<path d="M175.818 17.0828C175.818 16.3126 176.564 15.9066 177.478 15.9066C178.224 15.9066 178.833 16.1753 179.287 16.6529C179.508 16.8858 179.89 16.9753 180.171 16.8261L181.992 15.8529C182.433 15.6141 182.523 15.0349 182.195 14.6528C181.036 13.3274 179.365 12.6169 177.478 12.6169C174.529 12.6169 172.039 14.2468 172.039 17.1664C172.039 22.2055 179.424 21.0592 179.424 23.1488C179.424 23.9787 178.624 24.3788 177.448 24.3788C176.373 24.3788 175.561 23.9847 175.054 23.2921C174.839 22.9996 174.433 22.8742 174.111 23.0473L172.212 24.0623C171.812 24.2773 171.669 24.7788 171.925 25.1549C173.066 26.8207 174.976 27.7222 177.448 27.7222C180.511 27.7222 183.198 26.2356 183.198 23.1429C183.198 17.8769 175.812 19.1964 175.812 17.0768L175.818 17.0828Z" fill="white"/>
<path d="M88.2364 12.6167C86.8154 12.6167 85.5019 12.9989 84.3735 13.6556V8.16872C84.3735 7.74482 84.0272 7.39853 83.6033 7.39853H81.4479C81.024 7.39853 80.6777 7.74482 80.6777 8.16872V20.2172C80.7016 24.4563 84.0391 27.7221 88.2304 27.7221C92.4217 27.7221 95.813 24.4324 95.813 20.1694C95.813 15.9065 92.4337 12.6167 88.2304 12.6167H88.2364ZM88.2364 24.1219C86.0631 24.1219 84.3794 22.4979 84.3735 20.1814V20.1575C84.3735 17.8469 86.0631 16.217 88.2364 16.217C90.4097 16.217 92.1292 17.8469 92.1292 20.1635C92.1292 22.48 90.4395 24.11 88.2364 24.11V24.1219Z" fill="white"/>
<path d="M165.477 27.6252H163.22C162.796 27.6252 162.449 27.2789 162.449 26.855V20.0845C162.449 16.0305 165.733 12.7467 169.787 12.7467H170.098C170.522 12.7467 170.868 13.093 170.868 13.5169V15.7737C170.868 16.1977 170.522 16.5439 170.098 16.5439H169.787C167.829 16.5439 166.241 18.1321 166.241 20.0904V26.861C166.241 27.2849 165.894 27.6312 165.471 27.6312L165.477 27.6252Z" fill="white"/>
<path d="M75.1375 22.8127C74.833 22.6515 74.4569 22.7172 74.2181 22.968C73.5195 23.6964 72.5403 24.1263 71.4119 24.1263C69.8596 24.1263 68.558 23.2964 67.9371 21.9769C67.7639 21.6127 68.0207 21.1888 68.4207 21.1888H77.9795C78.5347 21.1888 78.9885 20.735 78.9885 20.1798C78.9885 15.9168 75.6092 12.6271 71.406 12.6271C67.2027 12.6271 63.8533 15.9168 63.8533 20.1798C63.8533 24.4427 67.2027 27.7324 71.406 27.7324C73.7882 27.7324 75.8958 26.6757 77.2809 24.986C77.5854 24.6158 77.4541 24.0606 77.0361 23.8397L75.1256 22.8187L75.1375 22.8127ZM71.4179 16.2213C72.9583 16.2213 74.2479 17.0214 74.8808 18.2931H67.9789C68.6118 17.0214 69.8954 16.2213 71.4119 16.2213H71.4179Z" fill="white"/>
<path d="M195.409 0.843124L195.409 39.8431" stroke="white" stroke-miterlimit="10"/>
<path d="M296.921 31.2636C296.921 33.7473 298.222 35.1683 300.175 35.1683C301.214 35.1683 301.847 34.7563 302.265 34.1055L302.354 34.9952H303.847V27.5917C302.987 27.2932 302.115 27.1798 301.047 27.1798C298.306 27.1798 296.915 28.6604 296.915 31.2636H296.921ZM302.217 33.3055C301.787 33.6339 301.267 33.8369 300.635 33.8369C299.184 33.8369 298.575 32.7741 298.575 31.2636C298.575 29.6038 299.357 28.5709 301.047 28.5709C301.506 28.5709 301.876 28.6007 302.217 28.6604V33.3055ZM308.587 27.1798C307.805 27.1798 306.665 27.341 305.626 27.5917V34.9952H307.256V28.6903C307.698 28.6187 308.157 28.5709 308.545 28.5709C310.175 28.5709 310.558 29.1321 310.558 30.3023V34.9952H312.187V30.0217C312.187 28.2306 311.316 27.1798 308.593 27.1798H308.587ZM281.619 27.3708C281.595 26.8275 281.445 26.2961 281.165 25.8125L278.699 21.5376C278.508 21.2093 278.382 20.863 278.311 20.5047L278.209 20.6839C277.6 21.7406 277.6 23.0422 278.209 24.105L280.186 27.5261C280.795 28.5828 280.795 29.8844 280.186 30.9472L280.084 31.1263C280.012 30.768 279.881 30.4217 279.696 30.0934L277.887 26.9648L276.735 24.9647C276.544 24.6363 276.418 24.29 276.347 23.9318L276.245 24.1109C275.636 25.1677 275.636 26.4633 276.239 27.5201L278.221 30.9472C278.83 32.0039 278.83 33.3055 278.221 34.3682L278.12 34.5474C278.048 34.1891 277.917 33.8428 277.732 33.5145L275.266 29.2396C274.938 28.6664 274.782 28.0216 274.812 27.3828C272.173 28.0753 270.346 29.5381 270.346 31.2337C270.346 33.5921 273.875 35.5086 278.227 35.5086C282.58 35.5086 286.108 33.5981 286.108 31.2337C286.108 29.5381 284.287 28.0694 281.642 27.3828L281.619 27.3708ZM293.237 29.2814L292.437 28.9411C291.398 28.4992 290.825 28.0515 290.825 27.2813C290.825 26.5111 291.416 25.9916 292.706 25.9916C293.386 25.9916 294.336 26.123 295.136 26.4215C295.285 25.9916 295.386 25.5319 295.434 24.9408C294.592 24.6423 293.685 24.511 292.724 24.511C290.323 24.511 289.159 25.5916 289.159 27.2813C289.159 28.8515 290.109 29.6336 291.5 30.2426L292.252 30.571C293.643 31.18 294.204 31.58 294.204 32.4338C294.204 33.2876 293.434 33.7533 292.061 33.7533C291.249 33.7533 290.18 33.5622 289.35 33.1741C289.189 33.6458 289.1 34.0638 289.07 34.6668C289.9 35.0489 290.891 35.228 292.103 35.228C294.616 35.228 295.906 34.0578 295.906 32.3562C295.906 30.9233 295.124 30.0755 293.243 29.2754L293.237 29.2814ZM340.41 27.2992C340.028 27.2275 339.628 27.1798 339.198 27.1798C336.458 27.1798 335.066 28.6604 335.066 31.2636C335.066 33.8667 336.368 35.1683 338.32 35.1683C339.389 35.1683 340.022 34.7384 340.44 34.0458L340.529 34.9952H342.022V24.6363C341.491 24.6363 340.912 24.6781 340.41 24.8572V27.2992ZM340.41 33.2756C339.968 33.616 339.431 33.8369 338.78 33.8369C337.329 33.8369 336.72 32.7741 336.72 31.2636C336.72 29.5739 337.49 28.5709 339.102 28.5709C339.532 28.5709 339.974 28.6306 340.404 28.7202V33.2816L340.41 33.2756ZM346.966 27.1798C344.374 27.1798 343.353 28.9291 343.353 31.1322C343.353 33.6637 344.673 35.1743 347.396 35.1743C348.267 35.1743 349.055 35.0429 349.796 34.7026C349.897 34.213 349.987 33.6518 350.046 33.2219C349.234 33.5921 348.327 33.7831 347.443 33.7831C345.992 33.7831 345.222 33.1443 345.013 31.8308H350.208C350.267 31.4009 350.297 31.0307 350.297 30.571C350.297 28.7082 349.288 27.1798 346.966 27.1798ZM344.983 30.4635C345.115 29.2038 345.724 28.541 346.876 28.541C348.028 28.541 348.649 29.2515 348.649 30.4635H344.977H344.983ZM354.488 27.1798C353.569 27.1798 352.399 27.3589 351.706 27.5917V34.9952H353.336V28.6604C353.736 28.6007 354.136 28.5709 354.536 28.5709C354.996 28.5709 355.378 28.5828 355.766 28.6306C355.856 28.3201 355.915 27.7291 355.915 27.2395C355.557 27.1977 354.996 27.1798 354.494 27.1798H354.488ZM317.865 28.8217C317.937 28.3918 317.985 27.932 318.015 27.4305H315.441V24.6304C314.94 24.6304 314.319 24.702 313.811 24.8692V32.6428C313.811 34.4459 314.82 35.1743 316.403 35.1743C316.862 35.1743 317.334 35.1146 317.782 34.9354C317.871 34.5056 317.931 34.004 317.973 33.5563C317.621 33.6876 317.173 33.7772 316.701 33.7772C315.919 33.7772 315.441 33.407 315.441 32.4457V28.8217H317.871H317.865ZM330.165 27.1798C329.383 27.1798 328.242 27.341 327.203 27.5917V34.9952H328.833V28.6903C329.275 28.6187 329.735 28.5709 330.123 28.5709C331.753 28.5709 332.135 29.1321 332.135 30.3023V34.9952H333.765V30.0217C333.765 28.2306 332.893 27.1798 330.171 27.1798H330.165ZM318.504 31.2636C318.504 33.7473 319.806 35.1683 321.758 35.1683C322.797 35.1683 323.43 34.7563 323.848 34.1055L323.937 34.9952H325.43V27.5917C324.57 27.2932 323.699 27.1798 322.63 27.1798C319.889 27.1798 318.498 28.6604 318.498 31.2636H318.504ZM323.8 33.3055C323.37 33.6339 322.851 33.8369 322.218 33.8369C320.767 33.8369 320.158 32.7741 320.158 31.2636C320.158 29.6038 320.94 28.5709 322.63 28.5709C323.09 28.5709 323.46 28.6007 323.8 28.6604V33.3055Z" fill="white"/>
<path d="M206.922 27.6211V23.2504H208.197V27.5249C208.197 28.1584 208.534 28.6316 209.408 28.6316C210.282 28.6316 210.619 28.1584 210.619 27.5249V23.2504H211.902V27.6211C211.902 29.0245 210.843 29.8746 209.416 29.8746C207.988 29.8746 206.938 29.0165 206.938 27.6211H206.922Z" fill="white"/>
<path d="M219.873 26.8831V29.7461H218.678V26.9713C218.678 26.426 218.397 26.0891 217.9 26.0891C217.37 26.0891 217.034 26.442 217.034 27.1397V29.7461H215.839V26.9713C215.839 26.426 215.558 26.0891 215.061 26.0891C214.564 26.0891 214.187 26.442 214.187 27.1397V29.7461H212.992V25.1027H214.187V25.5919C214.443 25.1989 214.884 24.9664 215.478 24.9664C216.071 24.9664 216.48 25.207 216.745 25.632C217.034 25.215 217.499 24.9664 218.132 24.9664C219.191 24.9664 219.889 25.7202 219.889 26.8831H219.873Z" fill="white"/>
<path d="M225.615 25.102V29.7454H224.42V29.2001C224.083 29.6171 223.586 29.8817 222.904 29.8817C221.669 29.8817 220.65 28.8151 220.65 27.4277C220.65 26.0403 221.669 24.9737 222.904 24.9737C223.586 24.9737 224.083 25.2303 224.42 25.6554V25.11H225.615V25.102ZM224.42 27.4197C224.42 26.6418 223.874 26.1125 223.128 26.1125C222.383 26.1125 221.845 26.6418 221.845 27.4197C221.845 28.1976 222.391 28.7269 223.128 28.7269C223.866 28.7269 224.42 28.1976 224.42 27.4197Z" fill="white"/>
<path d="M231.348 28.7834C231.813 28.7834 232.182 28.5909 232.39 28.3182L233.353 28.8716C232.92 29.5051 232.222 29.866 231.332 29.866C229.768 29.866 228.79 28.7994 228.79 27.412C228.79 26.0246 229.784 24.958 231.244 24.958C232.615 24.958 233.593 26.0406 233.593 27.412C233.593 27.5884 233.577 27.7488 233.545 27.9012H230.041C230.209 28.5107 230.722 28.7754 231.348 28.7754V28.7834ZM232.382 26.987C232.23 26.3213 231.733 26.0487 231.228 26.0487C230.586 26.0487 230.153 26.3935 230.009 26.987H232.374H232.382Z" fill="white"/>
<path d="M241.309 26.8831V29.7461H240.114V26.9713C240.114 26.426 239.833 26.0891 239.336 26.0891C238.806 26.0891 238.47 26.442 238.47 27.1397V29.7461H237.275V26.9713C237.275 26.426 236.994 26.0891 236.497 26.0891C236 26.0891 235.623 26.442 235.623 27.1397V29.7461H234.428V25.1027H235.623V25.5919C235.879 25.1989 236.32 24.9664 236.914 24.9664C237.507 24.9664 237.916 25.207 238.181 25.632C238.47 25.215 238.935 24.9664 239.568 24.9664C240.627 24.9664 241.325 25.7202 241.325 26.8831H241.309Z" fill="white"/>
<path d="M247.3 27.42C247.3 28.8074 246.282 29.8741 245.031 29.8741C244.349 29.8741 243.86 29.6254 243.523 29.1924V31.5983H242.328V25.0943H243.523V25.6397C243.86 25.2146 244.349 24.958 245.031 24.958C246.274 24.958 247.3 26.0246 247.3 27.412V27.42ZM246.097 27.42C246.097 26.6421 245.552 26.1128 244.806 26.1128C244.06 26.1128 243.523 26.6421 243.523 27.42C243.523 28.1979 244.068 28.7272 244.806 28.7272C245.544 28.7272 246.097 28.1979 246.097 27.42Z" fill="white"/>
<path d="M250.748 25.0053V26.3446C250.123 26.2724 249.337 26.5451 249.337 27.5235V29.745H248.142V25.1016H249.337V25.9035C249.577 25.27 250.163 25.0133 250.748 25.0133V25.0053Z" fill="white"/>
<path d="M253.587 28.7834C254.052 28.7834 254.421 28.5909 254.63 28.3182L255.592 28.8716C255.159 29.5051 254.461 29.866 253.571 29.866C252.007 29.866 251.029 28.7994 251.029 27.412C251.029 26.0246 252.023 24.958 253.483 24.958C254.854 24.958 255.833 26.0406 255.833 27.412C255.833 27.5884 255.817 27.7488 255.785 27.9012H252.28C252.449 28.5107 252.962 28.7754 253.587 28.7754V28.7834ZM254.63 26.987C254.478 26.3213 253.98 26.0487 253.475 26.0487C252.833 26.0487 252.4 26.3935 252.256 26.987H254.622H254.63Z" fill="white"/>
<path d="M259.978 28.3908C259.978 29.3932 259.104 29.8744 258.11 29.8744C257.179 29.8744 256.49 29.4815 256.161 28.7677L257.203 28.1823C257.332 28.5592 257.653 28.7837 258.118 28.7837C258.495 28.7837 258.759 28.6554 258.759 28.3828C258.759 27.7011 256.361 28.078 256.361 26.442C256.361 25.4957 257.171 24.9664 258.126 24.9664C258.88 24.9664 259.529 25.3112 259.89 25.9528L258.872 26.5062C258.735 26.2094 258.471 26.033 258.126 26.033C257.829 26.033 257.588 26.1613 257.588 26.4099C257.588 27.0996 259.986 26.6665 259.986 28.3828L259.978 28.3908Z" fill="white"/>
<path d="M265.409 25.102V29.7454H264.214V29.2001C263.877 29.6171 263.38 29.8817 262.698 29.8817C261.463 29.8817 260.445 28.8151 260.445 27.4277C260.445 26.0403 261.463 24.9737 262.698 24.9737C263.38 24.9737 263.877 25.2303 264.214 25.6554V25.11H265.409V25.102ZM264.214 27.4197C264.214 26.6418 263.668 26.1125 262.923 26.1125C262.177 26.1125 261.64 26.6418 261.64 27.4197C261.64 28.1976 262.185 28.7269 262.923 28.7269C263.66 28.7269 264.214 28.1976 264.214 27.4197Z" fill="white"/>
<path d="M211.885 35.9786C211.885 37.366 210.866 38.4326 209.615 38.4326C208.934 38.4326 208.444 38.184 208.108 37.751V40.1569H206.913V33.6529H208.108V34.1982C208.444 33.7732 208.934 33.5166 209.615 33.5166C210.858 33.5166 211.885 34.5832 211.885 35.9706V35.9786ZM210.69 35.9786C210.69 35.2007 210.145 34.6714 209.399 34.6714C208.653 34.6714 208.116 35.2007 208.116 35.9786C208.116 36.7565 208.661 37.2858 209.399 37.2858C210.137 37.2858 210.69 36.7565 210.69 35.9786Z" fill="white"/>
<path d="M217.459 33.6533V38.2967H216.264V37.7514C215.927 38.1684 215.43 38.4331 214.748 38.4331C213.513 38.4331 212.495 37.3665 212.495 35.9791C212.495 34.5916 213.513 33.525 214.748 33.525C215.43 33.525 215.927 33.7817 216.264 34.2067V33.6614H217.459V33.6533ZM216.256 35.9791C216.256 35.2011 215.711 34.6718 214.965 34.6718C214.219 34.6718 213.682 35.2011 213.682 35.9791C213.682 36.757 214.227 37.2863 214.965 37.2863C215.703 37.2863 216.256 36.757 216.256 35.9791Z" fill="white"/>
<path d="M221.157 33.5541V34.8934C220.532 34.8212 219.746 35.0939 219.746 36.0723V38.2938H218.551V33.6504H219.746V34.4523C219.986 33.8188 220.572 33.5621 221.157 33.5621V33.5541Z" fill="white"/>
<path d="M221.428 35.9791C221.428 34.5916 222.471 33.525 223.882 33.525C224.796 33.525 225.582 34.0062 225.959 34.72L224.925 35.3214C224.74 34.9445 224.339 34.6959 223.866 34.6959C223.152 34.6959 222.623 35.2252 222.623 35.971C222.623 36.7169 223.152 37.2301 223.866 37.2301C224.347 37.2301 224.748 36.9976 224.933 36.6206L225.975 37.2141C225.574 37.9359 224.788 38.4251 223.874 38.4251C222.462 38.4251 221.42 37.3584 221.42 35.971L221.428 35.9791Z" fill="white"/>
<path d="M228.855 37.3419C229.32 37.3419 229.689 37.1495 229.897 36.8768L230.86 37.4302C230.427 38.0637 229.729 38.4246 228.839 38.4246C227.275 38.4246 226.296 37.358 226.296 35.9706C226.296 34.5832 227.291 33.5166 228.75 33.5166C230.122 33.5166 231.1 34.5992 231.1 35.9706C231.1 36.147 231.084 36.3074 231.052 36.4598H227.547C227.716 37.0693 228.229 37.3339 228.855 37.3339V37.3419ZM229.897 35.5375C229.745 34.8719 229.248 34.5992 228.742 34.5992C228.101 34.5992 227.668 34.9441 227.523 35.5375H229.889H229.897Z" fill="white"/>
<path d="M231.791 32.3594C231.791 31.9584 232.127 31.6136 232.528 31.6136C232.929 31.6136 233.274 31.9584 233.274 32.3594C233.274 32.7604 232.937 33.0972 232.528 33.0972C232.119 33.0972 231.791 32.7604 231.791 32.3594ZM231.927 33.6506H233.122V38.294H231.927V33.6506Z" fill="white"/>
<path d="M236.834 33.5541V34.8934C236.209 34.8212 235.423 35.0939 235.423 36.0723V38.2938H234.228V33.6504H235.423V34.4523C235.664 33.8188 236.249 33.5621 236.834 33.5621V33.5541Z" fill="white"/>
<path d="M242.079 33.6533V38.2967H240.884V37.7514C240.548 38.1684 240.05 38.4331 239.369 38.4331C238.134 38.4331 237.115 37.3665 237.115 35.9791C237.115 34.5916 238.134 33.525 239.369 33.525C240.05 33.525 240.548 33.7817 240.884 34.2067V33.6614H242.079V33.6533ZM240.876 35.9791C240.876 35.2011 240.331 34.6718 239.585 34.6718C238.839 34.6718 238.302 35.2011 238.302 35.9791C238.302 36.757 238.847 37.2863 239.585 37.2863C240.323 37.2863 240.876 36.757 240.876 35.9791Z" fill="white"/>
<path d="M206.909 8.86687V4.49547H208.184V8.77062C208.184 9.40427 208.521 9.8775 209.395 9.8775C210.269 9.8775 210.606 9.40427 210.606 8.77062V4.49547H211.89V8.86687C211.89 10.2705 210.831 11.1207 209.403 11.1207C207.975 11.1207 206.925 10.2625 206.925 8.86687H206.909Z" fill="white"/>
<path d="M219.862 8.12675V10.9902H218.667V8.21498C218.667 7.66955 218.386 7.33268 217.889 7.33268C217.36 7.33268 217.023 7.6856 217.023 8.38342V10.9902H215.828V8.21498C215.828 7.66955 215.547 7.33268 215.05 7.33268C214.552 7.33268 214.175 7.6856 214.175 8.38342V10.9902H212.98V6.3461H214.175V6.83538C214.432 6.44235 214.873 6.20975 215.467 6.20975C216.06 6.20975 216.469 6.45037 216.734 6.87548C217.023 6.4584 217.488 6.20975 218.122 6.20975C219.18 6.20975 219.878 6.96371 219.878 8.12675H219.862Z" fill="white"/>
<path d="M225.613 6.34718V10.9913H224.418V10.4459C224.081 10.863 223.584 11.1276 222.902 11.1276C221.667 11.1276 220.648 10.0609 220.648 8.67324C220.648 7.28562 221.667 6.21884 222.902 6.21884C223.584 6.21884 224.081 6.47551 224.418 6.90062V6.3552H225.613V6.34718ZM224.41 8.66522C224.41 7.88719 223.864 7.35781 223.118 7.35781C222.372 7.35781 221.835 7.88719 221.835 8.66522C221.835 9.44325 222.38 9.97263 223.118 9.97263C223.856 9.97263 224.41 9.44325 224.41 8.66522Z" fill="white"/>
<path d="M231.34 10.0357C231.806 10.0357 232.175 9.84322 232.383 9.57051L233.346 10.124C232.913 10.7576 232.215 11.1185 231.324 11.1185C229.76 11.1185 228.782 10.0518 228.782 8.66415C228.782 7.27653 229.776 6.20975 231.236 6.20975C232.608 6.20975 233.586 7.29257 233.586 8.66415C233.586 8.84061 233.57 9.00103 233.538 9.15342H230.033C230.201 9.76301 230.715 10.0277 231.34 10.0277V10.0357ZM232.375 8.23102C232.223 7.56528 231.725 7.29257 231.22 7.29257C230.578 7.29257 230.145 7.63747 230.001 8.23102H232.367H232.375Z" fill="white"/>
<path d="M241.302 8.12675V10.9902H240.107V8.21498C240.107 7.66955 239.826 7.33268 239.328 7.33268C238.799 7.33268 238.462 7.6856 238.462 8.38342V10.9902H237.267V8.21498C237.267 7.66955 236.986 7.33268 236.489 7.33268C235.992 7.33268 235.615 7.6856 235.615 8.38342V10.9902H234.42V6.3461H235.615V6.83538C235.871 6.44235 236.313 6.20975 236.906 6.20975C237.5 6.20975 237.909 6.45037 238.173 6.87548C238.462 6.4584 238.927 6.20975 239.561 6.20975C240.62 6.20975 241.318 6.96371 241.318 8.12675H241.302Z" fill="white"/>
<path d="M247.294 8.66422C247.294 10.0518 246.275 11.1186 245.024 11.1186C244.342 11.1186 243.853 10.87 243.516 10.4368V12.8431H242.321V6.33815H243.516V6.88358C243.853 6.45847 244.342 6.2018 245.024 6.2018C246.267 6.2018 247.294 7.26858 247.294 8.6562V8.66422ZM246.09 8.66422C246.09 7.88619 245.545 7.35681 244.799 7.35681C244.053 7.35681 243.516 7.88619 243.516 8.66422C243.516 9.44225 244.061 9.97163 244.799 9.97163C245.537 9.97163 246.09 9.44225 246.09 8.66422Z" fill="white"/>
<path d="M250.744 6.25063V7.59012C250.118 7.51793 249.332 7.79064 249.332 8.76919V10.991H248.137V6.34688H249.332V7.14897C249.572 6.51532 250.158 6.25865 250.744 6.25865V6.25063Z" fill="white"/>
<path d="M253.583 10.0357C254.048 10.0357 254.417 9.84322 254.626 9.57051L255.588 10.124C255.155 10.7576 254.457 11.1185 253.567 11.1185C252.003 11.1185 251.024 10.0518 251.024 8.66415C251.024 7.27653 252.019 6.20975 253.479 6.20975C254.85 6.20975 255.829 7.29257 255.829 8.66415C255.829 8.84061 255.813 9.00103 255.781 9.15342H252.275C252.444 9.76301 252.957 10.0277 253.583 10.0277V10.0357ZM254.626 8.23102C254.473 7.56528 253.976 7.29257 253.471 7.29257C252.829 7.29257 252.396 7.63747 252.251 8.23102H254.618H254.626Z" fill="white"/>
<path d="M259.974 9.63468C259.974 10.6373 259.1 11.1185 258.105 11.1185C257.175 11.1185 256.485 10.7255 256.156 10.0117L257.199 9.42614C257.327 9.80312 257.648 10.0277 258.113 10.0277C258.49 10.0277 258.755 9.89937 258.755 9.62666C258.755 8.94488 256.357 9.32186 256.357 7.6856C256.357 6.73913 257.167 6.20975 258.121 6.20975C258.875 6.20975 259.525 6.55465 259.886 7.19632L258.867 7.75779C258.731 7.46101 258.466 7.28455 258.121 7.28455C257.825 7.28455 257.584 7.41288 257.584 7.66153C257.584 8.35133 259.982 7.9182 259.982 9.63468H259.974Z" fill="white"/>
<path d="M265.405 6.34718V10.9913H264.21V10.4459C263.873 10.863 263.375 11.1276 262.694 11.1276C261.458 11.1276 260.44 10.0609 260.44 8.67324C260.44 7.28562 261.458 6.21884 262.694 6.21884C263.375 6.21884 263.873 6.47551 264.21 6.90062V6.3552H265.405V6.34718ZM264.21 8.66522C264.21 7.88719 263.664 7.35781 262.918 7.35781C262.172 7.35781 261.635 7.88719 261.635 8.66522C261.635 9.44325 262.18 9.97263 262.918 9.97263C263.656 9.97263 264.21 9.44325 264.21 8.66522Z" fill="white"/>
<path d="M276.174 13.2202C274.431 13.2202 272.938 12.6171 271.708 11.429C270.49 10.2469 269.857 8.78408 269.857 7.09443C269.857 5.40477 270.472 3.942 271.708 2.7479C272.926 1.5538 274.431 0.944809 276.174 0.944809C277.404 0.944809 278.556 1.27916 279.577 1.918C280.598 2.55684 281.38 3.42257 281.888 4.46741L281.972 4.63458H279.852L279.816 4.58682C279.416 4.01962 278.879 3.56586 278.24 3.23748C277.601 2.9091 276.903 2.74193 276.168 2.74193C274.938 2.74193 273.882 3.16584 273.016 4.01962C272.15 4.86146 271.714 5.9063 271.714 7.08846C271.714 8.27062 272.15 9.31545 273.028 10.1573C273.893 10.9991 274.962 11.423 276.18 11.423C276.915 11.423 277.613 11.2559 278.252 10.9275C278.891 10.5931 279.422 10.1454 279.828 9.57816L279.864 9.53039H281.984L281.9 9.69757C281.392 10.7543 280.61 11.6081 279.589 12.247C278.568 12.8858 277.422 13.2202 276.186 13.2202L276.174 13.2321V13.2202Z" fill="white"/>
<path d="M291.268 13.2203L290.002 10.0082H284.987L283.721 13.2203H281.733L286.599 0.944946H288.378L293.25 13.2203H291.262H291.274H291.268ZM289.172 8.22299L287.381 3.72123L285.59 8.22299H289.166H289.172Z" fill="white"/>
<path d="M300.796 13.2203L298.641 8.51554H296.151V13.2203H294.3V0.944946H299.256C300.325 0.944946 301.256 1.32706 302.014 2.06143C302.772 2.7958 303.166 3.69735 303.166 4.74219C303.166 5.56014 302.904 6.3184 302.396 6.98112C301.913 7.60803 301.292 8.06178 300.557 8.30658L302.808 13.2143H300.784L300.796 13.2263V13.2203ZM299.256 6.73036C299.823 6.73036 300.301 6.53931 300.713 6.13928C301.113 5.7512 301.316 5.27356 301.316 4.74219C301.316 4.21081 301.113 3.72123 300.713 3.33315C300.313 2.94506 299.835 2.74207 299.256 2.74207H296.151V6.72439H299.256V6.73633V6.73036Z" fill="white"/>
<path d="M313.442 13.2203C311.698 13.2203 310.206 12.6173 308.976 11.4291C307.758 10.247 307.125 8.78422 307.125 7.09456C307.125 5.40491 307.74 3.94214 308.976 2.74804C310.194 1.55394 311.698 0.944946 313.442 0.944946C314.743 0.944946 315.943 1.30318 317.006 2.01367C318.063 2.72416 318.845 3.66152 319.317 4.79592L319.388 4.95115H317.352L317.317 4.89145C316.917 4.24066 316.367 3.72123 315.681 3.31524C315.006 2.92715 314.248 2.72416 313.442 2.72416C312.212 2.72416 311.155 3.14806 310.289 4.00184C309.424 4.84368 308.988 5.88852 308.988 7.07068C308.988 8.25284 309.424 9.29768 310.289 10.1395C311.155 10.9814 312.224 11.4053 313.442 11.4053C314.331 11.4053 315.161 11.1664 315.896 10.6948C316.582 10.2589 317.102 9.67382 317.46 8.97527H313.322V7.18412H319.759V7.30353C319.687 8.93945 319.048 10.3485 317.824 11.4889C316.618 12.6292 315.131 13.2084 313.442 13.2084V13.2203Z" fill="white"/>
<path d="M320.965 13.2202V8.39603C320.965 7.07058 321.449 5.91828 322.41 4.98091C323.371 4.04354 324.553 3.57187 325.915 3.57187H326.034V5.36302H325.915C325.061 5.36302 324.314 5.66154 323.723 6.25262C323.12 6.8437 322.81 7.56613 322.81 8.39603V13.2202H320.959H320.965Z" fill="white"/>
<path d="M331.061 13.2202C329.7 13.2202 328.512 12.7485 327.556 11.8112C326.583 10.8738 326.1 9.72746 326.1 8.39603C326.1 7.06461 326.583 5.91828 327.556 4.98091C328.53 4.04354 329.7 3.57187 331.061 3.57187C332.422 3.57187 333.61 4.04354 334.566 4.98091C335.539 5.91828 336.023 7.06461 336.023 8.39603C336.023 9.72746 335.539 10.8738 334.566 11.8112C333.593 12.7485 332.422 13.2202 331.061 13.2202ZM331.061 5.36899C330.207 5.36899 329.461 5.66751 328.858 6.25859C328.255 6.84967 327.944 7.5721 327.944 8.402C327.944 9.2319 328.255 9.95433 328.858 10.5335C329.461 11.1126 330.207 11.4231 331.061 11.4231C331.915 11.4231 332.661 11.1246 333.264 10.5335C333.867 9.95433 334.178 9.2319 334.178 8.402C334.178 7.5721 333.867 6.84967 333.264 6.25859C332.661 5.66751 331.915 5.36899 331.061 5.36899Z" fill="white"/>
<path d="M340.966 13.2195C339.897 13.2195 338.977 12.8373 338.219 12.091C337.461 11.3447 337.067 10.4551 337.067 9.43416V3.56516H338.918V9.44013C338.918 9.9715 339.121 10.4491 339.521 10.8253C339.921 11.2134 340.41 11.4044 340.954 11.4044C341.497 11.4044 341.999 11.2134 342.387 10.8253C342.787 10.4432 342.99 9.9715 342.99 9.44013V3.56516H344.84V9.44013C344.84 10.473 344.458 11.3746 343.688 12.1089C342.93 12.8433 342.004 13.2254 340.942 13.2254H340.966V13.2195Z" fill="white"/>
<path d="M346.077 16.9331V8.37738C346.077 7.05193 346.561 5.89962 347.534 4.97419C348.507 4.03682 349.677 3.56516 351.039 3.56516C352.4 3.56516 353.588 4.03682 354.543 4.97419C355.516 5.91156 356 7.0579 356 8.37738C356 9.69686 355.516 10.8671 354.543 11.8044C353.57 12.7418 352.4 13.2135 351.039 13.2135C349.868 13.2135 348.812 12.8553 347.922 12.1448V16.9331H346.071H346.077ZM351.039 5.36825C350.185 5.36825 349.438 5.66677 348.835 6.24591C348.232 6.82505 347.922 7.54748 347.922 8.37738C347.922 9.20728 348.232 9.92971 348.835 10.5208C349.438 11.1119 350.185 11.4104 351.039 11.4104C351.892 11.4104 352.639 11.1119 353.242 10.5208C353.845 9.92971 354.155 9.20728 354.155 8.37738C354.155 7.54748 353.845 6.82505 353.242 6.24591C352.639 5.66677 351.892 5.36825 351.039 5.36825Z" fill="white"/>
</svg>
