<svg xmlns="http://www.w3.org/2000/svg" width="68" height="68" viewBox="0 0 68 68" fill="none"    style="transform: rotate(-30deg);">    <circle cx="32.7253" cy="31.9763" r="18.75" transform="rotate(30 32.7253 31.9763)" fill="white" />    <path fill-rule="evenodd" clip-rule="evenodd"        d="M12.3302 20.8015C18.894 9.43267 33.4488 5.54679 44.8382 12.1225C56.2277 18.6981 60.1392 33.2456 53.5753 44.6145C47.0115 55.9833 32.4577 59.8689 21.0683 53.2933C9.67887 46.7176 5.76635 32.1704 12.3302 20.8015ZM37.7485 46.8715C38.7033 47.4918 39.9685 47.1811 40.5301 46.2084L48.4331 32.5199C48.994 31.5485 48.6312 30.2962 47.6166 29.7795C46.6657 29.2944 45.496 29.7225 44.9632 30.6453L42.7899 34.4096C42.3819 35.1162 41.4773 35.3572 40.77 34.9488L36.9259 32.7294C36.218 32.3207 35.975 31.4173 36.383 30.7106L39.2948 25.6673C39.8276 24.7444 39.6128 23.517 38.7173 22.936C37.7624 22.3157 36.4972 22.6281 35.9364 23.5995L32.9688 28.7394C32.5608 29.4461 31.6557 29.6867 30.949 29.2787L27.1049 27.0593C26.3963 26.6502 26.154 25.7471 26.562 25.0404L28.7353 21.2762C29.2681 20.3533 29.0533 19.1259 28.1572 18.5446C27.203 17.9246 25.9371 18.2366 25.3762 19.208L17.529 32.7999C16.9962 33.7227 17.2107 34.9491 18.1059 35.5308C19.0607 36.1511 20.3265 35.8407 20.8881 34.868L23.1171 31.0072C23.5251 30.3005 24.4283 30.0588 25.1369 30.4679L28.981 32.6873C29.6877 33.0953 29.9319 33.9995 29.5239 34.7062L26.6122 39.7495C26.0794 40.6723 26.2939 41.8987 27.1884 42.48C28.1432 43.1003 29.409 42.79 29.9706 41.8172L32.9381 36.6774C33.3461 35.9707 34.25 35.7294 34.9579 36.1381L38.802 38.3575C39.5093 38.7659 39.7529 39.6697 39.3449 40.3763L37.1716 44.1406C36.6388 45.0634 36.8534 46.2898 37.7485 46.8715Z"        fill="#b5b5c0" /></svg>